<?xml version="1.0" encoding="UTF-8" standalone="no"?>
<!-- Generator: Adobe Illustrator 22.0.1, SVG Export Plug-In . SVG Version: 6.00 Build 0)  -->

<svg
   xmlns:dc="http://purl.org/dc/elements/1.1/"
   xmlns:cc="http://creativecommons.org/ns#"
   xmlns:rdf="http://www.w3.org/1999/02/22-rdf-syntax-ns#"
   xmlns:svg="http://www.w3.org/2000/svg"
   xmlns="http://www.w3.org/2000/svg"
   xmlns:sodipodi="http://sodipodi.sourceforge.net/DTD/sodipodi-0.dtd"
   xmlns:inkscape="http://www.inkscape.org/namespaces/inkscape"
   version="1.1"
   id="Capa_1"
   x="0px"
   y="0px"
   viewBox="0 0 555.04845 438.53973"
   enable-background="new 0 0 896.9 942"
   xml:space="preserve"
   sodipodi:docname="apadrina.svg"
   width="555.04846"
   height="438.53973"
   inkscape:version="0.92.1 r15371"><metadata
     id="metadata77"><rdf:RDF><cc:Work
         rdf:about=""><dc:format>image/svg+xml</dc:format><dc:type
           rdf:resource="http://purl.org/dc/dcmitype/StillImage" /><dc:title></dc:title></cc:Work></rdf:RDF></metadata><defs
     id="defs75" /><sodipodi:namedview
     pagecolor="#ffffff"
     bordercolor="#666666"
     borderopacity="1"
     objecttolerance="10"
     gridtolerance="10"
     guidetolerance="10"
     inkscape:pageopacity="0"
     inkscape:pageshadow="2"
     inkscape:window-width="669"
     inkscape:window-height="480"
     id="namedview73"
     showgrid="false"
     fit-margin-top="0"
     fit-margin-left="0"
     fit-margin-right="0"
     fit-margin-bottom="0"
     inkscape:zoom="0.25053079"
     inkscape:cx="276.63024"
     inkscape:cy="239.01475"
     inkscape:window-x="0"
     inkscape:window-y="0"
     inkscape:window-maximized="0"
     inkscape:current-layer="Capa_1" /><g
     id="g62"
     transform="translate(-171.81977,-271.47501)"><path
       d="m 453,684.6 c 0.1,0 0.1,0 0.2,0 -3.7,-0.1 -7.5,-0.4 -11.2,-1 4.4,0.8 8.2,1.2 11,1 z"
       id="path2"
       inkscape:connector-curvature="0"
       style="fill:#68c1bd" /><path
       d="m 597.4,363.7 -22.2,-19 18.3,-14.4 -9.8,-48.4 -51.6,99.3 -46.4,0.7 c 0,3.6 -1.2,158.5 11.8,192.1 13.1,34 28.1,43.8 34.6,48.4 5.5,3.8 24.3,17.8 30.2,22.2 0.7,-0.5 1.3,-1.1 1.8,-1.6 17.6,-17 51,-74.2 60.8,-93.8 9.8,-19.5 -27.5,-185.5 -27.5,-185.5 z"
       id="path4"
       inkscape:connector-curvature="0"
       style="fill:#68c1bd" /><path
       d="m 429.5,509.4 c 0.7,-92.8 8.5,-82.3 -0.7,-126.1 l 47.2,-1.1 -111.2,1.7 -38.6,-94.8 c 0,0 -37.9,243.8 -34,268.6 3.9,24.8 23.5,54.2 56.2,81 7.4,6.1 16.1,11.9 25.1,17.1 -1.4,-0.9 -2.2,-1.4 -2.2,-1.4 0,0 57.5,-52.2 58.2,-145 z"
       id="path6"
       inkscape:connector-curvature="0"
       style="fill:#68c1bd" /><path
       d="m 441.9,683.5 c -16.9,-3.2 -44.2,-13.6 -68.4,-27.6 8.3,5.3 38.4,23.2 68.4,27.6 z"
       id="path8"
       inkscape:connector-curvature="0"
       style="fill:#f0efbf" /><path
       d="m 485.7,382 -9.7,0.2 9.7,-0.2 c 0,0 0,0 0,0 z"
       id="path10"
       inkscape:connector-curvature="0"
       style="fill:#f0efbf" /><path
       d="M 497.4,574.1 C 484.5,540.5 485.6,385.6 485.6,382 l -9.7,0.2 -47.2,1.1 c 9.1,43.8 1.3,33.3 0.7,126.1 -0.6,92.8 -58.2,145.1 -58.2,145.1 0,0 0.8,0.5 2.2,1.4 24.2,14 51.5,24.4 68.4,27.6 3.8,0.6 7.5,0.9 11.2,1 16.8,-1.4 88.6,-23.1 109.1,-39.9 -5.9,-4.4 -24.7,-18.3 -30.2,-22.2 -6.4,-4.5 -21.4,-14.3 -34.5,-48.3 z"
       id="path12"
       inkscape:connector-curvature="0"
       style="fill:#f0efbf" /><path
       d="m 357.6,467.1 c -18.9,-4.6 -33.7,-0.9 -33.7,-0.9 0,0 -5,23.9 8.3,44 -0.6,-2.7 -1,-5.5 -1,-8.4 0,-16.5 11.1,-30.5 26.4,-34.7 z"
       id="path14"
       inkscape:connector-curvature="0"
       style="fill:#f0efbf" /><path
       d="m 403.1,500.1 c 0,0.6 0,1.2 0,1.8 0,18.1 -13.3,33 -30.6,35.6 19.7,6.9 34.4,5.3 38.6,2.8 0,-0.1 2.8,-20.5 -8,-40.2 z"
       id="path16"
       inkscape:connector-curvature="0"
       style="fill:#f0efbf" /><path
       d="m 403.2,501.8 c 0,-0.6 0,-1.2 0,-1.8 -3.8,-6.8 -9.1,-13.6 -16.9,-19.4 -9.7,-7.3 -19.6,-11.4 -28.7,-13.5 -15.2,4.2 -26.4,18.1 -26.4,34.7 0,2.9 0.4,5.7 1,8.4 3.6,5.4 8.6,10.6 15.4,14.9 8.9,5.7 17.3,9.6 25,12.3 17.3,-2.6 30.6,-17.5 30.6,-35.6 z"
       id="path18"
       inkscape:connector-curvature="0"
       style="fill:#354093" /><path
       d="m 516.2,502.8 c 0,-0.8 0,-1.6 0.1,-2.3 -10.6,19.6 -7.7,39.7 -7.7,39.7 4,2.4 17.8,4 36.5,-2.1 -16.6,-3.3 -28.9,-17.9 -28.9,-35.3 z"
       id="path20"
       inkscape:connector-curvature="0"
       style="fill:#f0efbf" /><path
       d="m 588.2,502.8 c 0,2.6 -0.3,5.1 -0.8,7.5 13.4,-20.1 8.4,-44.1 8.4,-44.1 0,0 -16,-4 -35.9,1.4 16.2,3.6 28.3,18 28.3,35.2 z"
       id="path22"
       inkscape:connector-curvature="0"
       style="fill:#f0efbf" /><path
       d="m 587.4,510.3 c 0.5,-2.4 0.8,-4.9 0.8,-7.5 0,-17.2 -12.1,-31.6 -28.3,-35.2 -8.4,2.3 -17.6,6.3 -26.6,13 -7.9,5.9 -13.3,12.8 -17.1,19.8 0,0.8 -0.1,1.6 -0.1,2.3 0,17.4 12.4,32 28.8,35.3 8.2,-2.7 17.4,-6.8 27.1,-12.9 6.8,-4.2 11.8,-9.4 15.4,-14.8 z"
       id="path24"
       inkscape:connector-curvature="0"
       style="fill:#354093" /><ellipse
       cx="270.79999"
       cy="530.59998"
       rx="3.9000001"
       ry="1.2"
       id="ellipse26"
       style="fill:#f7f2bf" /><ellipse
       cx="377.89999"
       cy="501.60001"
       rx="10.7"
       ry="8.6999998"
       id="ellipse28"
       style="fill:#f7f2bf" /><circle
       cx="540.79999"
       cy="515.90002"
       r="8.3999996"
       id="circle30"
       style="fill:#f7f2bf" /><circle
       cx="559.40002"
       cy="489.60001"
       r="8.1999998"
       id="circle32"
       style="fill:#f7f2bf" /><circle
       cx="533.79999"
       cy="493.70001"
       r="4.0999999"
       id="circle34"
       style="fill:#f7f2bf" /><polygon
       points=""
       id="polygon36"
       style="fill:#f7f2bf" /><circle
       cx="348.89999"
       cy="492"
       r="8.6999998"
       id="circle38"
       style="fill:#f7f2bf" /><ellipse
       cx="364.79999"
       cy="481.20001"
       rx="5.0999999"
       ry="4.9000001"
       id="ellipse40"
       style="fill:#f7f2bf" /><path
       d="m 354.2,515.9 c 0,0 1.8,-7.4 10.6,0 8.9,7.4 6.9,6.4 5.1,10.9 -1.8,4.5 -6.4,0.4 -12.3,-2.5 -5.9,-3 -3.4,-8.4 -3.4,-8.4 z"
       id="path42"
       inkscape:connector-curvature="0"
       style="fill:#f7f2bf" /><path
       d="m 561.7,507.5 c 5.5,-6.6 6.5,-11.7 14,-9.7 7.5,2 -2.5,15.1 -7,18.1 -4.5,3 -11,6.9 -11.5,2.4 -0.5,-4.5 0.9,-6.6 4.5,-10.8 z"
       id="path44"
       inkscape:connector-curvature="0"
       style="fill:#f7f2bf" /><path
       d="m 448.8,583.4 10.3,-11.5 9,9.2 c 0,0 1,12.3 -8.5,13.1 -9.5,0.9 -10.8,-10.8 -10.8,-10.8 z"
       id="path46"
       inkscape:connector-curvature="0"
       style="fill:#e8654d" /><g
       id="g52"><g
         id="g50"><path
           d="m 436.6,570.5 c 0.3,5.9 2.1,15.2 9.6,14.9 10.9,-0.5 14.7,-11.1 14.9,-20.4 -1.3,0 -2.7,0 -4,0 0.5,5.8 2.2,13.7 7.6,16.9 3.6,2.1 9,1.5 12.4,-0.7 3.6,-2.3 4.3,-6.2 4.5,-10.1 0.1,-2.6 -3.9,-2.6 -4,0 -0.2,3.5 -0.9,6.4 -4.5,7.6 -3.9,1.3 -7,0.2 -9.1,-3.3 -1.8,-3 -2.7,-6.9 -2.9,-10.5 -0.2,-2.5 -3.9,-2.6 -4,0 -0.1,6.7 -2.4,16.1 -10.8,16.4 -4.8,0.1 -5.5,-7.1 -5.7,-10.8 -0.2,-2.6 -4.2,-2.6 -4,0 z"
           id="path48"
           inkscape:connector-curvature="0"
           style="fill:#354093" /></g></g><g
       id="g58"><g
         id="g56"><path
           d="m 447.9,583 c 1.6,5.5 3.7,14.1 10.8,14.4 7.9,0.4 12.7,-9.6 12.6,-16.3 0,-2.6 -4,-2.6 -4,0 0,4.3 -3.8,14.4 -9.6,12.1 -3.9,-1.5 -4.9,-7.6 -5.9,-11.2 -0.7,-2.5 -4.6,-1.5 -3.9,1 z"
           id="path54"
           inkscape:connector-curvature="0"
           style="fill:#354093" /></g></g><polygon
       points="459.6,567 446.4,547.7 471,547.7 "
       id="polygon60"
       style="fill:#e8654d" /></g><path
     d="m 535.78023,16.024992 c 4,11.4 -11.6,45.7 -12.4,46 -1.1,0.4 -24.9,-20.1 -28.9,-31.5 -4,-11.4 3.3,-21.1000003 18.1,-14.4 6.8,-13.9000003 19.3,-11.5000003 23.2,-0.1 z"
     id="path64"
     inkscape:connector-curvature="0"
     style="fill:#e8654d" /><path
     d="m 78.880232,37.624992 c -4.8,21.6 -53.1,59.9 -54.6,59.6 -2,-0.5 -28.4999997,-55.5 -23.69999974,-77.1 4.80000004,-21.6000003 25.59999974,-29.6000003 42.19999974,-4.8 24,-15.20000028 40.9,0.7 36.1,22.3 z"
     id="path66"
     inkscape:connector-curvature="0"
     style="fill:#e8654d" /><path
     d="m 78.280232,378.12499 c 6.6,19.1 -3.6,59.9 -5,60.4 -1.8,0.6 -57.6,-17.2 -64.1999997,-36.3 -6.6,-19.1 5.5999997,-35.2 30.3999997,-24 11.4,-23.4 32.2,-19.2 38.8,-0.1 z"
     id="path68"
     inkscape:connector-curvature="0"
     style="fill:#e8654d" /><path
     d="m 553.98023,386.52499 c -5.3,19.7 -46.6,50.2 -48,49.9 -1.8,-0.5 -28.5,-49.4 -23.2,-69.1 5.3,-19.7 24.7,-26.2 39,-2.7 22.5,-13.1 37.5,2.2 32.2,21.9 z"
     id="path70"
     inkscape:connector-curvature="0"
     style="fill:#e8654d" /></svg>