<?xml version="1.0" encoding="utf-8"?>
<!-- Generator: Adobe Illustrator 19.0.0, SVG Export Plug-In . SVG Version: 6.00 Build 0)  -->
<svg version="1.1" id="Layer_1" xmlns="http://www.w3.org/2000/svg" xmlns:xlink="http://www.w3.org/1999/xlink" x="0px" y="0px"
	 viewBox="0 0 1305.1 2048" style="enable-background:new 0 0 1305.1 2048;" xml:space="preserve">
<style type="text/css">
	.st0{fill:#E8654D;}
	.st1{fill:#344194;}
	.st2{fill:#68C1BD;}
	.st3{fill:#F7F2BF;}
	.st4{fill:#ECBB3B;}
	.st5{fill:none;}
	.st6{fill:#354093;}
</style>
<g>
	<path class="st0" d="M262.7,660.5l21.5,218.7L263.7,1257c0,0-17.6,15.6-83,16.6c-65.4,1-104.5-58.6-126.9-158.2
		c-16.6-73.4,0-335.8-9.8-344.6S8.9,735.7,3,652.7s31.2-148.4,118.1-150.3s106.4,109.3,106.4,109.3"/>
	<g>
		<g>
			<path class="st1" d="M133,631.8c20.2,3.6,29.4-22.3,17.5-36.3c-8.2-9.6-23-10.8-34.5-8c-12.2,3-22.1,11.9-26.8,23.5
				c-11.7,28.9,10.4,56.3,36.7,66.2c11.7,4.4,26.3,6.6,38.2,1.5c6.9-2.9,10.2-8.1,12.7-14.8c6.1-16.2,8.7-34.3,8.8-51.6
				c0-20.3-4.4-42.1-18.6-57.4c-16.2-17.6-43.6-23.3-66.5-18.6c-21.6,4.4-38.7,19.7-49,38.8c-10.8,20.1-15,43.9-13.3,66.7
				c1.6,21.3,8.6,43.5,23.8,59.1c3.4,3.5,7.3,6.6,11.4,9.2c2.2,1.4,4.2-2.1,2-3.5C41,684.9,36.2,634.5,46.2,598.7
				c5.3-19,15.7-37.5,32.3-48.8c18.2-12.4,42.1-13.8,62.7-6.8c39.8,13.6,44.2,60.3,37.9,96c-1.2,6.9-2.8,13.8-5,20.5
				c-1.7,5.2-3.5,10.6-8.3,13.7c-9.6,6.4-23.7,4.8-34.2,1.7c-13.9-4.1-27.4-13-35.2-25.5c-13.8-22.1-3.8-54.1,23.5-58.7
				c11-1.9,25.3,0.5,30.4,11.8c3.3,7.3,1.8,17.2-4.5,22.5c-3.3,2.8-7.5,3.7-11.7,2.9C131.5,627.5,130.4,631.4,133,631.8L133,631.8z"
				/>
		</g>
	</g>
	<path class="st2" d="M807.4,548.1c0,0,28.7,2.6,18.3-62.6s-65.3-60-65.3-60c-31.3-2.6-52.2,31.3-52.2,73.1s47,67.9,47,67.9
		s27,175.7,7.8,201C723.6,819.3,619.8,825,579,825.1c-5.7,0-10.1-5.1-9.1-10.6c0,0,0-0.1,0-0.1c3.5-18.3,10.4-40.9,17.8-65.4
		c14.7-48.9,30.9-105.2,24-148.7c-10.4-65.3-120.1-347.2-151.4-370.7c-18.3,26.1-13.1,180.1-13.1,180.1l-180.1,54.8L160.1,321
		l-2.6,107l36.5,13.1l-28.7,36.5c0,0,18.3,190.6,44.4,229.7c26.1,39.2,49.6,62.6,49.6,104.4c0,41.8-52.2,148.8-39.2,318.5
		c13.1,169.7,7.8,258.4,7.8,258.4s-49.6,86.1-2.6,122.7c47,36.5,94,7.8,91.4-49.6c-2.6-57.4-26.1-62.6-26.1-62.6s-10.4-295,0-360.2
		c0,0,13.1,274.1,31.3,344.6c9.8,37.7,7.6,220.9,3.5,383.3l90.1-8.6c12-187.3,36.1-439.3,78.7-442.5c39.2-3,38.3,232.6,30.6,432.1
		l85.7-8.2c12.1-215.5,27.9-539.1,19.4-622.4c-6.5-63.3-23.8-124.7-38.4-177.2c33.8-12.9,200.8-78.2,228.9-120.4
		C851.8,772.6,807.4,548.1,807.4,548.1z"/>
	<path class="st3" d="M250.5,774.5c0,0,114.4-87,111.9-151.7s-37.3-179.1-37.3-179.1l72.1-19.9c0,0,44.8,149.2,77.1,179.1
		s136.8,69.6,136.8,69.6s-7.5,54.7-22.4,64.7c-14.9,9.9-62.2,34.8-141.8,47.3S322.7,814.3,250.5,774.5z"/>
	<path class="st4" d="M696.3,444.3c-22.6-35.3-31.3-75.8-34.7-103.3c-47.3,36.5-90.6,69.9-123.4,95.7c3.1,19.4,9.8,44.8,24.1,64.5
		c19.2,26.4,46.9,48.4,61.1,58.9c35.1-13.3,80.4-30.7,130.5-50.2C735.4,493.9,713.8,471.7,696.3,444.3z"/>
	<path class="st4" d="M955.6,430.2c130.9-52.8,246.2-102,260-115.7L1009,63.3c-33.3,31-99.5,84.5-174.3,143.3
		c5.5,32.3,17.8,84,44.2,138.9C901,391.3,931.2,416.4,955.6,430.2z"/>
	<path class="st1" d="M562.2,501.3c-14.3-19.7-21-45.1-24.1-64.5c-36.3,28.5-59.8,47.6-62,51.4c-9.4,16.4,2.3,54,14.1,68.1
		c26.3,31.5,42.3,35.2,61,30.5c3.7-0.9,30.8-10.9,72.1-26.6C609.1,549.7,581.4,527.7,562.2,501.3z"/>
	<path class="st1" d="M878.9,345.5c-26.4-54.9-38.7-106.7-44.2-138.9c-56.3,44.3-117.5,91.6-173.2,134.5
		c3.4,27.5,12.2,68,34.7,103.3c17.5,27.4,39.1,49.6,57.6,65.7c63.6-24.7,134.7-52.8,201.8-79.8C931.2,416.4,901,391.3,878.9,345.5z"
		/>
	<g>
		<circle class="st2" cx="1128.7" cy="180.6" r="162"/>
		<path class="st1" d="M1128.7,354.6c-95.9,0-173.9-78-173.9-173.9s78-173.9,173.9-173.9s173.9,78,173.9,173.9
			S1224.6,354.6,1128.7,354.6z M1128.7,30.6c-82.7,0-150,67.3-150,150s67.3,150,150,150c82.7,0,150-67.3,150-150
			S1211.4,30.6,1128.7,30.6z"/>
	</g>
	<path class="st3" d="M466.8,831.9c28.1,11.2,48.5,96.5,57.3,159s11.7,183.5-23.8,191.8s-92.1-85.8-91.8-197.3
		S406.4,807.8,466.8,831.9z"/>
	<g>
		<g>
			<path class="st1" d="M241.5,602.3c10.2-12.5,27.2-20.2,43.2-20.3c11.8-0.1,26.2,2.7,36.5,8.7c2,1.2,3.7,2.5,5.1,4.4
				c0.5,0.7,0.4,1.1,0.4,1c-0.1,3.2,4.9,3.2,5,0c0.2-3.4-3.3-6.4-5.7-8.2c-10-7.2-24.9-10-36.9-10.7c-18.6-1.2-39.2,7-51.2,21.7
				C235.9,601.3,239.4,604.8,241.5,602.3L241.5,602.3z"/>
		</g>
	</g>
	<g>
		<g>
			<path class="st1" d="M416,685.1c1.3-11.8,2.7-23.6,4-35.3c-0.6,0.2-1.2,0.3-1.9,0.5c6.7,9.1,13.5,18.3,20.2,27.4
				c0.8,1,2.5,0,1.7-1c-6.7-9.1-13.5-18.3-20.2-27.4c-0.6-0.8-1.7-0.5-1.9,0.5c-1.3,11.8-2.7,23.6-4,35.3
				C413.9,686.3,415.9,686.3,416,685.1L416,685.1z"/>
		</g>
	</g>
	<path class="st0" d="M394,630.4c-1.3-3.8,30.9-13.1,33.3-11.5c2.4,1.6-4.8,30-7,30.7S395,633.6,394,630.4z"/>
	<path class="st0" d="M594.6,797.2c22.3,16.8-29.3,55.6-30.3,88.8c-1,33.9,7.8,93.7,46.9,129.8c39,36.1,31.2,57.6,28.3,74.2
		c-2.9,16.6-6.8,45.9-57.6-35.1c-50.8-81-77.1-158.2-35.1-222.6S579,785.5,594.6,797.2z"/>
	<path class="st0" d="M220.7,804.1c-9,26.9,13.7,43,30.3,47.8s49.8,0,56.6,36.1s0,102.5-15.6,138.6c0,0-6.8,67.4-4.9,83
		s88.6-91.8,81-187.4c-5.9-74.2-30.3-112.3-69.3-126.9C263.5,782,232.4,768.9,220.7,804.1z"/>
	<path class="st5" d="M494.2,1315.6c-42.6,3.3-66.7,255.3-78.7,442.5l109.3-10.4C532.5,1548.2,533.4,1312.6,494.2,1315.6z"/>
	<path class="st1" d="M509.9,2020.4l172.3,10.4l-83.5-91.4c0,0,5.4-84.5,11.9-199.9l-85.7,8.2
		C519.2,1893.7,509.9,2020.4,509.9,2020.4z"/>
	<path class="st1" d="M494.2,2041.3l-88.8-83.5c0,0,2.9-88.4,10-199.6l-90.1,8.6c-3.6,141.3-8.7,266.7-8.7,266.7L494.2,2041.3z"/>
	<path class="st3" d="M1144.3,240.4c0.7-0.2,1.5-0.4,2.2-0.6c-10-3.5-19.3-9.2-27.1-17c-19.1-19.1-25.4-46.6-19.1-72.7
		c-38.3,18.2-82.6,54.7-73.4,63.9C1060.4,247.6,1144.3,240.4,1144.3,240.4z"/>
	<path class="st6" d="M1119.4,222.8c7.9,7.9,17.1,13.5,27.1,17c56.6-16.1,106.7-78,106.7-78c-47.1-29.5-84.2-26.7-122.6-21.8
		c-8.6,1.1-19.2,4.8-30.2,10.1C1094,176.1,1100.2,203.6,1119.4,222.8z"/>
	<path class="st4" d="M99.9,1045.9c0,0-11.2,91.2,49.6,84.8s48-86.4,48-86.4L99.9,1045.9z"/>
	<polygon class="st1" points="99.9,1036.3 202.3,1029.9 146.3,1097.2 	"/>
</g>
</svg>
