<?xml version="1.0" encoding="utf-8"?>
<!-- Generator: Adobe Illustrator 19.0.0, SVG Export Plug-In . SVG Version: 6.00 Build 0)  -->
<svg version="1.1" id="Capa_1" xmlns="http://www.w3.org/2000/svg" xmlns:xlink="http://www.w3.org/1999/xlink" x="0px" y="0px"
	 viewBox="0 0 1082.8 680" style="enable-background:new 0 0 1082.8 680;" xml:space="preserve">
<style type="text/css">
	.st0{fill:#68C1BD;}
	.st1{fill:#F7F2BF;}
	.st2{fill:none;}
	.st3{fill:#354093;}
	.st4{fill:#E8654D;}
	.st5{fill:#ECBB3B;}
	.st6{fill:none;stroke:#354093;stroke-width:0.55;stroke-miterlimit:10;}
	.st7{fill:#FAFAFA;}
	.st8{fill:#F2F2F2;}
</style>
<g id="XMLID_111_">
	<path id="XMLID_146_" class="st0" d="M1036.1,568.1c0,0,4.2,3.5,8.1,2.2c10.5-3.4,3.2-17.3,2.9-22.9c-0.4-5.7,26-44.9,26-51.2
		c0-4.5-44.9-39.4-46.2-41s0-4.7,0-4.7s15-21.8,16.8-23.4c1.8-1.6-5.5-56.7-5.5-56.7l-6.8-6.3l5.5-5l-4.2-17.3l-17.8,31.4l-49.1,0.4
		L952.9,344c0,0-15.2,73.2-14.2,78.8c1.1,5.5,14.2,23.9,14.2,23.9c1.3,1.1,2.5,4.4,1.6,5.5c-2,2.6-31,30.2-36.3,29.7
		c-5-0.5-12.2-22.8-12.2-22.8c-9.6-8.8-32.1-3-32.5,2.7c-0.1,2.2,0,7.2,15.2,10.7c11.5,2.7,15,36.9,28.5,42.2
		c10.9,4.3,39.3-28.9,39.3-28.9l-14,172.9l-21.3,15.2l37,1.3c0,0,18.9-102.4,22.6-106.3c3.7-3.9,22.3-2.9,25.2-0.8
		c2.9,2.1,3.3,5.6,3.3,5.6l17.2,101.5h32.3l-17.1-17.6L1036.1,568.1z M1028.1,481.8c0,0,21.7,19.1,21.7,21.2
		c0,2.1-17.8,34.3-17.8,34.3L1028.1,481.8z"/>
	<path id="XMLID_145_" class="st1" d="M953.7,445.5l0.6,3.9l37.8,3.8l34.9-2.7l0.3-5c0,0-12.8,1.5-19.4-9.8s-7.8-16.5-9-22.1
		c-1.2-5.6-2.3-29.3-1.6-40.2l-10.6,0.1c0,0-1.9,44.7-10.3,56.1C970.2,438.1,959.8,444.9,953.7,445.5z"/>
	<g id="XMLID_141_">
		<path id="XMLID_144_" class="st2" d="M1028.1,481.8l3.9,55.5c0,0,17.8-32.2,17.8-34.3C1049.7,500.9,1028.1,481.8,1028.1,481.8z"/>
		<path id="XMLID_143_" class="st3" d="M942.4,658.5l-21.3,15.2l37,1.3c0,0,4.5-24.5,9.6-50l-22.6-2.5L942.4,658.5z"/>
		<path id="XMLID_142_" class="st3" d="M1058.7,675l-17.1-17.6l-2.1-33.7c-7.4,0.4-15.7,1-21.6,1.5l8.4,49.9H1058.7z"/>
	</g>
	<g id="XMLID_134_">
		<g id="XMLID_48_">
			<path id="XMLID_57_" class="st3" d="M1043.3,570.5c-0.4-1.9-0.9-3.7-1.3-5.6c-0.1-0.5-0.9-0.3-0.8,0.2c0.4,1.9,0.9,3.7,1.3,5.6
				C1042.7,571.2,1043.4,571,1043.3,570.5L1043.3,570.5z"/>
		</g>
	</g>
	<g id="XMLID_126_">
		<g id="XMLID_41_">
			<path id="XMLID_47_" class="st3" d="M1047.2,568.9c-0.9-1.7-1.8-3.4-2.7-5.1c-0.2-0.5-0.9-0.1-0.7,0.4c0.9,1.7,1.8,3.4,2.7,5.1
				C1046.7,569.7,1047.4,569.3,1047.2,568.9L1047.2,568.9z"/>
		</g>
	</g>
	<ellipse id="XMLID_125_" class="st1" cx="994.8" cy="510.1" rx="21.2" ry="37.8"/>
	<path id="XMLID_124_" class="st1" d="M967.2,402.2c-0.1,0-0.2-0.1-0.2-0.1c0.5,1.1,0.8,2.3,0.8,3.6c0,3.1-1.7,5.9-4.4,7.5
		c4.6,1.6,11.2,2.3,11.2,0.8C974.6,408.4,967.2,402.2,967.2,402.2z"/>
	<path id="XMLID_123_" class="st3" d="M967.8,405.6c0-1.3-0.3-2.5-0.8-3.6c-5.9-3.3-15.1-2.3-15.1-2.3c1.4,6.3,4.7,9,8.2,11.8
		c0.8,0.6,2,1.2,3.3,1.6C966,411.5,967.8,408.8,967.8,405.6z"/>
	<path id="XMLID_122_" class="st1" d="M1027.3,401.2c0,0-4.2-0.2-8.1,0.1c0.5,1.3,0.7,2.7,0.7,4.2c0,2.9-1,5.6-2.6,7.6
		C1028,409.7,1027.3,401.2,1027.3,401.2z"/>
	<path id="XMLID_121_" class="st3" d="M1019.1,401.3c-1.7,0.2-3.4,0.4-4.7,0.9c-9.5,2.9-9.5,11.8-9.5,11.8s5.2,2.1,12.2-0.8
		c0,0,0.1,0,0.1,0c1.6-2,2.6-4.7,2.6-7.6C1019.8,404,1019.6,402.6,1019.1,401.3z"/>
	<g id="XMLID_114_">
		<g id="XMLID_65_">
			<path id="XMLID_69_" class="st3" d="M980,428.7c1.5,4.3,9.4,5.1,10.1,0c-0.5,0.1-1,0.1-1.5,0.2c1.1,2,2.6,3.9,5,4
				c3,0.1,4.6-1.6,4.9-4.4c0.1-1-1.5-1-1.6,0c-0.1,1.3-1.7,2.7-2.9,2.8c-1.2,0.1-2.1-0.6-2.8-1.5c-0.5-0.5-0.8-1.1-1.2-1.7
				c-0.3-0.6-1.4-0.5-1.5,0.2c-0.5,3.7-6.2,2.6-7.1,0C981.2,427.3,979.7,427.7,980,428.7L980,428.7z"/>
		</g>
	</g>
	<path id="XMLID_112_" class="st4" d="M985.5,420c0,0,7.8-1.1,7.8-0.1c0,1-2.8,8.6-4,8.6C988.2,428.5,985.5,421.3,985.5,420z"/>
</g>
<path id="XMLID_110_" class="st5" d="M966,375.3c-1.3-30.2,23.2-31.8,28.9-31.8s30.4,2.9,30.2,31.8C993,384.2,976.6,383,966,375.3z"
	/>
<path id="XMLID_109_" class="st5" d="M1014.9,373.3c-32.1,8.9-38.2,9.7-48.8,2c0,0,5.4,16.3,19.6,16.3
	C1010.1,391.6,1014.9,373.3,1014.9,373.3z"/>
<path id="XMLID_108_" class="st6" d="M1023.4,375.4c-22.7,10.3-46.7,7.6-57.3-0.1"/>
<path id="XMLID_107_" class="st0" d="M1032.7,341.9l-17.8,31.4c0,0-1.9,4.7-3.8,7.2c-1.3,1.6,20.2-3.7,20.2-3.7l-4-7.9L1032.7,341.9
	z"/>
<path id="XMLID_106_" class="st3" d="M983.6,355.9c1.8,0-1.8,14.4-4.6,14.6C976.1,370.8,981,355.9,983.6,355.9z"/>
<path id="XMLID_105_" class="st3" d="M995.1,355.5c4.5,0.6,3.4,14.9-0.6,15.1C990.5,370.7,992.5,355.1,995.1,355.5z"/>
<path id="XMLID_104_" class="st3" d="M1008.3,355.5c-2-0.5-1.8,14.7,1.4,15.8S1011.2,356.3,1008.3,355.5z"/>
<g id="XMLID_103_">
	<rect id="XMLID_297_" x="94.4" y="526.8" class="st3" width="18.6" height="34.4"/>
</g>
<g id="XMLID_102_">
	<rect id="XMLID_295_" x="274.2" y="530" class="st3" width="25.5" height="37.4"/>
</g>
<g id="XMLID_101_">
	<path id="XMLID_206_" class="st3" d="M287.2,434.2c-3.9-22.3-11.8-46.3-17.7-46.3c0,0,0,0-0.1,0c-2.4,0-4.6,1.2-6.5,3.5
		c-6.1,7.1-8.7,23-6.6,39.6l-4.2,0.5c-2.3-17.9,0.6-34.6,7.6-42.7c2.8-3.2,6.1-4.9,9.7-4.9c0.1,0,0.1,0,0.2,0
		c12.5,0,20.5,41.4,21.9,49.7L287.2,434.2z"/>
</g>
<g id="XMLID_100_">
	<path id="XMLID_291_" class="st5" d="M240.4,430.8c-2.6-18.9-18.4-88.5-20-90.1c-1.8-1.8-52.5-18.8-56-19.2
		c-3.5-0.4-52.1,19.2-55,23.4c-2.8,4.2-3.9,57.5-3.9,86.7l-28.1,1.7c-2.7,0.2-4.8,2.4-4.8,5.1v85.2c0,0,1.4,5.4,12,5.4
		s240,8.5,240,8.5s10.2,0.7,10.2-4.3s3.4-99.6,3.4-99.6L240.4,430.8z"/>
</g>
<g id="XMLID_99_">
	<path id="XMLID_289_" class="st3" d="M626.7,28.6l-3.5-2.4c0,0,3.7-5.4,5.7-8.4c2-2.9,3.8-5.8-0.1-8.5l-2.2-1.5
		c-4-2.7-6.3-0.2-8.3,2.8c-2,2.9-5.7,8.4-5.7,8.4l-2.9-1.9c0,0-8.5,11.7-22.5,31l18.9,12.8C619,40.8,626.7,28.6,626.7,28.6z"/>
</g>
<g id="XMLID_98_">
	<path id="XMLID_149_" class="st3" d="M373.6,341.5c-26.8,37.1-46,65.2-49.9,70.8c-15.6,22.9-0.2,36.1-0.2,36.1l6.6,5.1
		c0,0,18.5,9.1,34.1-13.8c3.8-5.6,21.6-33.3,46.3-71.9L373.6,341.5z"/>
	<path id="XMLID_202_" class="st3" d="M339,456.3c-5.6,0-9.4-1.8-9.5-1.8l-0.2-0.1l-6.6-5.1c-0.2-0.2-15.9-14.2,0-37.5
		c3.5-5.2,22.6-33.1,49.9-70.8l0.6-0.9l38.5,27.6l-0.5,0.8c-27.2,42.5-42.8,66.7-46.3,71.9C356.1,453.4,346.1,456.3,339,456.3z
		 M330.6,452.6c1.6,0.7,18.2,7.7,32.6-13.5c3.5-5.1,18.9-29,45.7-71L373.8,343c-26.9,37.3-45.7,64.8-49.2,69.9
		c-14.9,21.8-0.6,34.6-0.4,34.7L330.6,452.6z"/>
</g>
<g id="XMLID_97_">
	
		<ellipse id="XMLID_282_" transform="matrix(0.8268 0.5625 -0.5625 0.8268 302.649 -115.3851)" class="st7" cx="338.7" cy="433.7" rx="6.7" ry="7.9"/>
</g>
<g id="XMLID_96_">
	<polygon id="XMLID_201_" class="st3" points="373.9,344.9 373.3,340.7 428.6,333.2 414.4,284.6 416.1,281.9 467.3,272.7 
		457.5,225.7 459.1,223.2 505.5,212 500.4,166.7 501.8,164.4 544.1,151.4 542.8,107.4 544.2,105.3 583.5,91.5 585.1,48 589.4,48.2 
		587.7,93.1 586.3,95.1 547.1,108.8 548.4,152.9 546.9,155 504.8,168 510,213.4 508.4,215.7 462.1,226.9 471.9,274 470.2,276.5 
		419.2,285.7 433.4,334.4 431.7,337.1 	"/>
</g>
<g id="XMLID_95_">
	<polygon id="XMLID_200_" class="st3" points="408.4,368.4 394.4,312.2 396.3,309.6 447.8,305.1 437.3,253.7 439,251.2 485.8,243 
		480.1,195.1 481.6,192.8 524.9,181.6 522.3,136.1 523.7,134 564.4,120.5 564.5,77.1 565.8,75.2 605.3,59 606.9,62.9 568.7,78.6 
		568.6,122 567.2,124 526.6,137.5 529.2,183.1 527.6,185.3 484.5,196.5 490.2,244.5 488.5,246.8 441.9,255 452.4,306.6 450.5,309.2 
		399.1,313.6 412.5,367.4 	"/>
</g>
<g id="XMLID_94_">
	<path id="XMLID_199_" class="st3" d="M265.2,387.2l-2.7-3.3C283,366.7,373,271.3,460,179.1c41.4-43.9,80.5-85.3,110-116.1
		c50.2-52.3,50.9-51.7,53-49.6c1.5,1.4,4.3,4,4.6,98.7c0.2,46.4-0.4,92.7-0.4,93.1l-4.3-0.1c0.8-68.5,0.8-171-2.5-187.1
		c-12.9,10.8-86.3,88.6-157.4,164C376,274.3,286,369.8,265.2,387.2z"/>
</g>
<g id="XMLID_93_">
	<path id="XMLID_198_" class="st3" d="M626.6,285.6c-3.9,0-6.2-1.7-7.5-3.3c-8.8-10.7,3.1-44.5,4.5-48.3l4,1.4
		c-3.5,9.7-11.3,36.6-5.2,44.1c0.8,1,2.2,2.2,5.7,1.7l0.6,4.2C627.9,285.6,627.2,285.6,626.6,285.6z"/>
</g>
<g id="XMLID_92_">
	<path id="XMLID_272_" class="st5" d="M625.2,195.5c9.8,17.3,18.5,44.2,0,44.9C606.7,241.1,616.1,215.1,625.2,195.5z"/>
</g>
<g id="XMLID_86_">
	<circle id="XMLID_270_" class="st8" cx="668.9" cy="355.5" r="98.4"/>
</g>
<g id="XMLID_56_">
	<polygon id="XMLID_268_" class="st4" points="707.4,353.5 632.7,399.2 630.4,311.7 	"/>
</g>
<g id="XMLID_55_">
	<path id="XMLID_195_" class="st3" d="M411,370.9l-40.5-27.5l1.3-1.8L586.7,45.2L609,60.3l-1.1,1.7L411,370.9z M376.6,342.3
		l33.2,22.6L603.2,61.5L587.8,51L376.6,342.3z"/>
</g>
<g id="XMLID_54_">
	<path id="XMLID_262_" class="st8" d="M176.8,342.8c4.6-1,30.9,6.8,31.9,8.6c1.1,1.8,14.2,71.6,11.7,73.1c-2.5,1.4-34-6-34.8-7.8
		C185,414.9,176.8,342.8,176.8,342.8z"/>
</g>
<g id="XMLID_50_">
	<path id="XMLID_260_" class="st8" d="M120.4,362.4c1-5.1,28.4-14.2,30.1-12.1c1.8,2.1,11,61,9.9,64.9c-1.1,3.9-39,7.4-40.1,5.3
		C119.4,418.4,119.7,365.9,120.4,362.4z"/>
</g>
<g id="XMLID_49_">
	<ellipse id="XMLID_258_" class="st3" cx="330.6" cy="619.9" rx="44.2" ry="46.1"/>
</g>
<g id="XMLID_45_">
	<ellipse id="XMLID_256_" class="st3" cx="57.3" cy="613.1" rx="42.9" ry="45.8"/>
</g>
<g id="XMLID_44_">
	<path id="XMLID_192_" class="st3" d="M303.7,672c-13.1,0-27.9-0.6-44.5-1.3c-17.9-0.7-38.1-1.6-60.5-1.9c-12.3-0.1-23.9-0.2-35-0.3
		c-78.2-0.6-125.3-0.9-144.6-22.8c-8.5-9.7-11.4-23.1-9.1-41.9c5-40.3,49.1-51,188.8-45.6c123.6,4.8,180,6.9,180,57.5
		c0,19.4-4.3,32.6-13.6,41.5C353.1,669,332.6,672,303.7,672z M141.4,565.4c-98.1,0-119.6,14-122.8,39.4c-2,16.3,0.2,27.5,7,35.3
		c16.7,19.1,62.5,19.4,138.2,19.9c11,0.1,22.7,0.2,35,0.3c22.5,0.3,42.8,1.1,60.7,1.9c50.9,2.1,84.6,3.5,99.9-11.2
		c7.5-7.2,10.9-18.4,10.9-35.4c0-40.3-44.2-44-171.8-48.9C177.1,565.8,158.1,565.4,141.4,565.4z"/>
</g>
<g id="XMLID_28_">
	<path id="XMLID_189_" class="st3" d="M267.6,402.8c-4.1,0-7.8-4.7-8.5-11.1c-0.3-3,0.1-5.9,1.1-8.2c1.2-2.6,3.2-4.3,5.4-4.5
		c4.4-0.5,8.4,4.4,9.1,11.1c0.3,3-0.1,5.9-1.1,8.2c-1.2,2.6-3.2,4.3-5.4,4.5C267.9,402.8,267.7,402.8,267.6,402.8z M266.2,383.2
		c0,0-0.1,0-0.1,0c-0.7,0.1-1.5,0.8-2,2c-0.7,1.6-1,3.8-0.8,6c0.5,4.7,2.9,7.4,4.4,7.3c0.7-0.1,1.5-0.8,2-2c0.7-1.6,1-3.8,0.8-6
		C270,385.9,267.6,383.2,266.2,383.2z"/>
</g>
<g id="XMLID_27_">
	<path id="XMLID_150_" class="st0" d="M561.1,547.5l-4.5,0.4l-0.9-5.8h-5.9v21.4h5.1v4.4h-15.1v-4.4h4.9V542h-5.9l-0.9,5.8l-4.4-0.4
		l0.9-9.8h25.9L561.1,547.5z"/>
	<path id="XMLID_152_" class="st0" d="M590.9,567.8h-7.1l-6.2-11.9h-5v7.5h3.5v4.4H564v-4.4h3.5V542H564v-4.4h13.4
		c3.7,0,6.5,0.8,8.4,2.3c1.9,1.6,2.8,3.8,2.8,6.6c0,2-0.5,3.7-1.6,5.2c-1.1,1.4-2.5,2.5-4.4,3.1l4.6,8.6h3.7V567.8z M583.1,546.7
		c0-1.7-0.5-2.9-1.5-3.6c-1-0.7-2.7-1-5.1-1h-3.9v9.7h3.9c2.5,0,4.2-0.4,5.2-1.3C582.6,549.5,583.1,548.3,583.1,546.7z"/>
	<path id="XMLID_155_" class="st0" d="M622.7,567.8h-11.6v-4.4h3.1l-1.5-4.1h-11.3l-1.6,4.1h3.4v4.4h-11.4v-4.4h2.8l9.1-21.4h-4.4
		v-4.4h9.7l10.9,25.8h2.9V567.8z M611.3,555.5l-3.9-10.5h-0.3l-4.2,10.5H611.3z"/>
	<path id="XMLID_158_" class="st0" d="M636.5,567.8h-12.1v-4.4h3.5V542h-3.5v-4.4h12.1v4.4h-3.4v21.4h3.4V567.8z"/>
	<path id="XMLID_160_" class="st0" d="M662.6,567.8h-22.3v-4.4h3.5V542h-3.5v-4.4h13.1v4.4h-4.5v21.4h9.3l0.9-6.3l4.4,0.4
		L662.6,567.8z"/>
	<path id="XMLID_162_" class="st0" d="M688.9,567.8h-23v-4.4h3.5V542h-3.5v-4.4h22.7l0.9,8.7l-4.4,0.4l-0.9-4.7h-9.6v8.4h13.3v4.4
		h-13.3v8.6h9.9l0.9-4.7l4.4,0.4L688.9,567.8z"/>
	<path id="XMLID_164_" class="st0" d="M720.3,567.8h-7.1l-6.2-11.9h-5v7.5h3.5v4.4h-12.2v-4.4h3.5V542h-3.5v-4.4h13.4
		c3.7,0,6.5,0.8,8.4,2.3c1.9,1.6,2.8,3.8,2.8,6.6c0,2-0.5,3.7-1.6,5.2c-1.1,1.4-2.5,2.5-4.4,3.1l4.6,8.6h3.7V567.8z M712.5,546.7
		c0-1.7-0.5-2.9-1.5-3.6c-1-0.7-2.7-1-5.1-1H702v9.7h3.9c2.5,0,4.2-0.4,5.2-1.3C712,549.5,712.5,548.3,712.5,546.7z"/>
	<path id="XMLID_167_" class="st0" d="M755,567.8h-23v-4.4h3.5V542H732v-4.4h22.7l0.9,8.7l-4.4,0.4l-0.9-4.7h-9.6v8.4h13.3v4.4
		h-13.3v8.6h9.9l0.9-4.7l4.4,0.4L755,567.8z"/>
	<path id="XMLID_169_" class="st0" d="M791.1,542h-3.5v25.8l-3,0L768,546.9h-0.2v16.5h4.4v4.4h-12.6v-4.4h3.3V542h-3.8v-4.4h7.6
		l15.9,20h0.2V542h-4.4v-4.4h12.7V542z"/>
	<path id="XMLID_171_" class="st0" d="M586.1,593.7c0,3.3-1.1,5.8-3.2,7.5c-2.1,1.7-4.7,2.5-7.6,2.5h-5.1v6.1h4.8v4.4h-13.5v-4.4
		h3.5v-21.4h-3.5v-4.4H575c3.7,0,6.5,0.9,8.4,2.7C585.2,588.6,586.1,590.9,586.1,593.7z M580.6,593.8c0-1.7-0.5-3-1.4-3.9
		c-0.9-0.9-2.5-1.4-4.8-1.4h-4.2v10.9h4.2c2.2,0,3.8-0.5,4.7-1.5C580.1,596.8,580.6,595.5,580.6,593.8z"/>
	<path id="XMLID_174_" class="st0" d="M615.5,614.2h-7.1l-6.2-11.9h-5v7.5h3.5v4.4h-12.2v-4.4h3.5v-21.4h-3.5v-4.4H602
		c3.7,0,6.5,0.8,8.4,2.3c1.9,1.6,2.8,3.8,2.8,6.6c0,2-0.5,3.7-1.6,5.2c-1.1,1.4-2.5,2.5-4.4,3.1l4.6,8.6h3.7V614.2z M607.8,593.1
		c0-1.7-0.5-2.9-1.5-3.6c-1-0.7-2.7-1-5.1-1h-3.9v9.7h3.9c2.5,0,4.2-0.4,5.2-1.3C607.3,596,607.8,594.7,607.8,593.1z"/>
	<path id="XMLID_177_" class="st0" d="M647.7,599.1c0,4.3-1.4,7.9-4.1,11c-2.8,3.1-6.5,4.6-11.3,4.6c-4.8,0-8.5-1.5-11.2-4.6
		c-2.7-3.1-4-6.7-4-10.9c0-4.4,1.4-8.1,4.2-11.1c2.8-3,6.5-4.5,11.1-4.5c4.7,0,8.4,1.5,11.2,4.6
		C646.4,591.2,647.7,594.9,647.7,599.1z M642.2,599.2c0-3.4-0.9-6.1-2.6-8.1c-1.7-2-4.1-3-7.2-3c-3.2,0-5.6,1-7.3,3.1
		c-1.6,2.1-2.4,4.7-2.4,7.8c0,3,0.8,5.6,2.4,7.8c1.6,2.2,4.1,3.3,7.5,3.3c3.2,0,5.6-1,7.2-3.1C641.4,605,642.2,602.4,642.2,599.2z"
		/>
	<path id="XMLID_180_" class="st0" d="M676.3,611.4c-1.1,1-2.6,1.8-4.6,2.4c-2,0.6-4.1,0.9-6.2,0.9c-4.4,0-8-1.4-10.8-4.2
		c-2.8-2.8-4.2-6.5-4.2-10.9c0-2.5,0.5-5,1.6-7.4c1.1-2.4,2.7-4.5,4.9-6.1c2.2-1.6,5.1-2.4,8.5-2.4c2.5,0,4.7,0.4,6.5,1.1
		c1.8,0.7,3.2,1.5,4.3,2.5l0.8,6.5l-4.2,0.4l-0.7-4.2c-1.9-1.2-4.1-1.8-6.7-1.8c-2.8,0-5.1,1-6.8,3c-1.7,2-2.6,4.7-2.6,8.1
		c0,3.6,0.9,6.3,2.7,8.1c1.8,1.8,4.2,2.8,7.2,2.8c2.5,0,4.5-0.4,6.1-1.3l0.7-4.5l4.2,0.4L676.3,611.4z"/>
	<path id="XMLID_182_" class="st0" d="M703.9,614.2h-23v-4.4h3.5v-21.4h-3.5v-4.4h22.7l0.9,8.7l-4.4,0.4l-0.9-4.7h-9.6v8.4h13.3v4.4
		h-13.3v8.6h9.9l0.9-4.7l4.4,0.4L703.9,614.2z"/>
	<path id="XMLID_184_" class="st0" d="M730.2,605.4c0,3-1,5.3-3.1,6.9c-2.1,1.6-4.9,2.4-8.3,2.4c-2,0-4-0.2-5.9-0.7
		c-1.9-0.5-3.4-1.2-4.5-2.1l0.8-6.9l4.1,0.4l-0.1,3.7c1,0.5,2,0.9,2.8,1c0.9,0.1,1.6,0.2,2.4,0.2c1.8,0,3.3-0.3,4.5-0.9
		c1.2-0.6,1.8-1.7,1.8-3.5c0-1.9-0.7-3.1-2-3.8c-1.4-0.6-2.9-1.1-4.7-1.5c-1.4-0.3-2.9-0.7-4.3-1.1c-1.5-0.5-2.7-1.2-3.6-2.3
		c-1-1.1-1.4-2.7-1.4-4.8c0-3.2,1.1-5.4,3.2-6.8c2.2-1.4,4.6-2.1,7.2-2.1c1.9,0,3.7,0.3,5.4,0.8c1.7,0.6,3.1,1.3,4.1,2.2l0.3,6.4
		l-4.1,0.4l-0.4-3.9c-0.9-0.5-1.7-0.8-2.6-1c-0.9-0.2-1.7-0.3-2.5-0.3c-1.5,0-2.7,0.3-3.6,0.9c-1,0.6-1.4,1.5-1.4,2.8
		c0,1.5,0.6,2.5,1.8,3.1c1.2,0.5,2.5,1,4,1.3c1.3,0.3,2.7,0.6,4.3,1.1s3,1.3,4.2,2.5C729.7,601.1,730.2,602.9,730.2,605.4z"/>
	<path id="XMLID_186_" class="st0" d="M763.9,599.1c0,4.3-1.4,7.9-4.1,11c-2.8,3.1-6.5,4.6-11.3,4.6c-4.8,0-8.5-1.5-11.2-4.6
		c-2.7-3.1-4-6.7-4-10.9c0-4.4,1.4-8.1,4.2-11.1c2.8-3,6.5-4.5,11.1-4.5c4.7,0,8.4,1.5,11.2,4.6
		C762.5,591.2,763.9,594.9,763.9,599.1z M758.3,599.2c0-3.4-0.9-6.1-2.6-8.1c-1.7-2-4.1-3-7.2-3c-3.2,0-5.6,1-7.3,3.1
		c-1.6,2.1-2.4,4.7-2.4,7.8c0,3,0.8,5.6,2.4,7.8c1.6,2.2,4.1,3.3,7.5,3.3c3.2,0,5.6-1,7.2-3.1C757.5,605,758.3,602.4,758.3,599.2z"
		/>
</g>
</svg>
