<?xml version="1.0" encoding="UTF-8" standalone="no"?>
<!-- Created with Inkscape (http://www.inkscape.org/) -->

<svg
   xmlns:dc="http://purl.org/dc/elements/1.1/"
   xmlns:cc="http://creativecommons.org/ns#"
   xmlns:rdf="http://www.w3.org/1999/02/22-rdf-syntax-ns#"
   xmlns:svg="http://www.w3.org/2000/svg"
   xmlns="http://www.w3.org/2000/svg"
   xmlns:sodipodi="http://sodipodi.sourceforge.net/DTD/sodipodi-0.dtd"
   xmlns:inkscape="http://www.inkscape.org/namespaces/inkscape"
   width="202.565mm"
   height="140.17868mm"
   viewBox="0 0 202.565 140.17868"
   version="1.1"
   id="svg6014"
   inkscape:version="0.92.1 r15371"
   sodipodi:docname="dona.svg">
  <defs
     id="defs6008" />
  <sodipodi:namedview
     id="base"
     pagecolor="#ffffff"
     bordercolor="#666666"
     borderopacity="1.0"
     inkscape:pageopacity="0.0"
     inkscape:pageshadow="2"
     inkscape:zoom="0.35"
     inkscape:cx="535.65713"
     inkscape:cy="-206.52397"
     inkscape:document-units="mm"
     inkscape:current-layer="layer1"
     showgrid="false"
     fit-margin-top="0"
     fit-margin-left="0"
     fit-margin-right="0"
     fit-margin-bottom="0"
     inkscape:window-width="1920"
     inkscape:window-height="1017"
     inkscape:window-x="-8"
     inkscape:window-y="-8"
     inkscape:window-maximized="1" />
  <metadata
     id="metadata6011">
    <rdf:RDF>
      <cc:Work
         rdf:about="">
        <dc:format>image/svg+xml</dc:format>
        <dc:type
           rdf:resource="http://purl.org/dc/dcmitype/StillImage" />
        <dc:title></dc:title>
      </cc:Work>
    </rdf:RDF>
  </metadata>
  <g
     inkscape:label="Layer 1"
     inkscape:groupmode="layer"
     id="layer1"
     transform="translate(158.73488,45.988151)">
    <path
       d="m -16.283211,4.6795565 c 0,0 1.5875,3.175 2.46062,7.9375005 0.87313,4.7625 3.70417,16.933334 6.16479,21.695834 2.46063,4.7625 6.87916996,13.758333 11.1125,16.933333 4.23334,3.174995 13.57313,8.810625 18.33563,8.995835 4.7625,0.18521 22.03979,-1.24354 22.03979,-1.24354 l -7.40833,13.57312 c 0,0 -7.40834,4.41854 -8.99584,6.16479 -1.5875,1.77271 -0.52916,12.17084 -1.77271,13.41438 -1.24354,1.24354 -23.8125,3.70416 -27.33145,0.34396 -3.51896,-3.36021 -11.29771,-28.23105 -11.29771,-28.23105 l -4.94771,-52.916662 z"
       id="path1110"
       inkscape:connector-curvature="0"
       style="fill:#e8654d;stroke-width:0.26458332" />
    <path
       d="m -12.790711,59.977469 -4.23334,-46.169787 c 0,0 0.66146,-2.513541 0.13229,-5.2916665 2.11667,-2.38125 5.68855,-14.419792 6.21771,-16.536459 0.52917,-2.1166655 -2.91041,-22.2249995 -2.91041,-22.2249995 l -4.10105,-2.645833 3.70417,-2.38125 -1.85208,-10.715625 -8.86354,16.271875 -24.20938,0.926042 -6.74687,-12.964584 c 0,0 -7.276045,34.3958335 -7.011462,36.5124995 0.264584,2.116667 2.248959,4.76250003 5.688542,11.1125 3.43958,6.3500005 4.10104,10.8479175 4.10104,10.8479175 l -4.89479,4.365625 -10.715625,-10.847917 c -0.396875,-7.4083335 -7.540625,-9.52500047 -11.244792,-4.7625005 -3.704166,4.7625005 3.96875,9.9218755 6.085417,8.4666675 2.116667,1.852083 13.229167,15.610417 14.684375,15.478125 1.455205,-0.132292 4.233335,-2.248958 4.233335,-2.248958 v 1.852083 c 0,0 -5.556252,4.7625 -6.614585,4.7625 -1.058333,0 -14.684375,-6.614583 -14.684375,-6.614583 -1.852083,-2.645834 -6.879167,-3.704167 -8.466667,1.322916 -1.5875,5.027084 1.719792,7.540625 3.175,7.9375 1.455209,0.396875 4.233334,-0.661458 4.233334,-0.661458 0,0 14.684375,7.011458 17.727083,7.14375 3.04271,0.132292 4.36562,-1.984375 4.36562,-1.984375 l 0.26459,7.9375 -23.99771,0.47625 1.11125,10.133545 23.70667,1.05833 -0.66146,5.82083 -20.02896,8.255 5.450417,10.26584 c 20.981463,-6.90563 50.614793,-16.53646 53.578123,-17.06563 4.04813,-0.68792 8.59896,2.96333 8.99583,4.49792 0.66146,2.64583 -15.98083,6.82625 -18.52083,10.53041 -2.98979,4.41855 -0.39687,10.10709 3.96875,9.71021 4.36563,-0.39687 -1.05833,-3.30729 2.91042,-7.27604 2.24896,-3.04271 19.57916,-5.95312 19.71146,-13.22917 0.13229,-7.27604 -14.2875,-12.065 -14.2875,-12.065 z"
       id="path1112"
       inkscape:connector-curvature="0"
       style="fill:#68c1bd;stroke-width:0.26458332" />
    <path
       d="m -85.418839,79.027469 -12.303125,-8.33437 7.672916,21.03437 c 0,0 9.075209,-3.01625 20.902084,-6.87916 l -5.450417,-10.26584 z"
       id="path1114"
       inkscape:connector-curvature="0"
       style="fill:#354093;stroke-width:0.26458332" />
    <polygon
       transform="matrix(0.26458333,0,0,0.26458333,-171.54071,-77.473568)"
       points="383,518.5 384.5,479 340.5,479.5 306,437 308.5,515.5 "
       id="polygon1116"
       style="fill:#354093" />
    <g
       transform="matrix(0.26458333,0,0,0.26458333,-171.54071,-77.473568)"
       id="g1122">
      <path
         d="m 463,380.8 c -2.1,-2.3 -3.9,-3.7 -5.1,-4.7 -5.5,-4.5 -16,-5.8 -16,1.5 0,2.4 0.1,11 0.2,22.9 z"
         id="path1118"
         inkscape:connector-curvature="0"
         style="fill:#f7f2bf" />
      <path
         d="m 477.2,410.5 -34.3,34.6 c 0.5,30.3 1.1,60.9 1.6,69 1,16.5 4.5,22.5 15.5,21.5 11,-1 23.5,-15 22.5,-78 -0.4,-20.4 -2.5,-35.7 -5.3,-47.1 z"
         id="path1120"
         inkscape:connector-curvature="0"
         style="fill:#f7f2bf" />
    </g>
    <circle
       cx="-74.041756"
       cy="9.177475"
       r="2.7252083"
       id="circle1124"
       style="fill:#e8654d;stroke-width:0.26458332" />
    <path
       d="m -55.176961,10.764974 c 0,0 13.0175,-3.5189585 13.54666,-20.902083 -0.18521,-1.508125 1.11125,-11.377084 0.0529,-19.129375 l 8.91646,-0.264584 c 0,0 -1.50813,9.075209 -1.13771,14.022917 0.34396,4.947708 0.34396,13.5731245 5.47687,17.7270825 5.10646,4.153959 6.61459,5.55625 8.81063,6.535209 2.19604,0.978958 3.25437,2.0372915 3.25437,2.0372915 0,0 -23.73312,2.196042 -27.33145,2.037292 -3.65125,-0.211667 -11.58875,-2.06375 -11.58875,-2.06375 z"
       id="path1126"
       inkscape:connector-curvature="0"
       style="fill:#f7f2bf;stroke-width:0.26458332" />
    <path
       d="m -56.155921,8.1191405 c 0,0 0.97896,2.0372915 1.05833,2.9897915 0.0794,0.9525 0.18521,1.508125 0.18521,1.508125 l -3.96875,2.196042 c 0,0 0.44979,5.106458 0.87312,5.476875 0.4498,0.343958 5.02709,-1.5875 5.02709,-1.5875 0,0 0.44979,-2.566458 0.71437,-3.889375 0.26459,-1.322917 1.13771,6.429375 1.13771,6.429375 h 4.57729 c 0,0 0.26459,-2.196042 0.0794,-3.360208 -0.18521,-1.137709 -2.91042,-3.96875 -2.91042,-4.418542 0,0 8.46667,2.301875 16.13958,1.931458 7.67292,-0.343958 14.1023,-0.714375 15.42521,-1.508125 1.32292,-0.79375 2.19604,-2.196041 2.46063,-4.2333335 0.26458,-2.037292 -0.44979,-3.889375 -0.44979,-3.889375 0,0 -0.34396,1.666875 -2.30188,2.116667 -1.95792,0.449791 -16.58937,0.978958 -20.37292,0.873125 -3.73062,0 -16.6952,1.058333 -17.67416,-0.635 z"
       id="path1128"
       inkscape:connector-curvature="0"
       style="fill:#e8654d;stroke-width:0.26458332" />
    <g
       transform="matrix(0.26458333,0,0,0.26458333,-171.54071,-77.473568)"
       id="g1134">
      <path
         d="m 456.5,237.2 c -14,-10.3 -22.7,-5.7 -22.7,-5.7 0,0 0.5,3.5 1.6,8 2.1,-0.6 4.4,-1 6.7,-1 12.5,0 22.7,9.9 23.3,22.2 2.7,-0.4 4.4,-0.9 4.4,-0.9 0,0 0.7,-12.3 -13.3,-22.6 z"
         id="path1130"
         inkscape:connector-curvature="0"
         style="fill:#f7f2bf" />
      <path
         d="m 442.1,238.5 c -2.3,0 -4.6,0.3 -6.7,1 1.9,7.7 5.4,18.3 11.1,20 6.8,2.5 14.3,2 19,1.2 -0.6,-12.3 -10.9,-22.2 -23.4,-22.2 z"
         id="path1132"
         inkscape:connector-curvature="0"
         style="fill:#354093" />
    </g>
    <g
       transform="matrix(0.26458333,0,0,0.26458333,-171.54071,-77.473568)"
       id="g1140">
      <path
         d="m 566.3,255.2 c 7.6,-7 12.8,-18.6 11.1,-20.3 -2,-2 -17.7,-1 -30,4 -1.1,0.4 -2.1,1 -3,1.7 0.2,0 0.4,0 0.7,0 9.7,-0.1 18,6 21.2,14.6 z"
         id="path1136"
         inkscape:connector-curvature="0"
         style="fill:#f7f2bf" />
      <path
         d="m 533.8,265.2 c 14.3,1.3 18,-1 28,-6.7 1.6,-0.9 3.1,-2 4.5,-3.4 -3.2,-8.6 -11.5,-14.6 -21.2,-14.6 -0.2,0 -0.5,0 -0.7,0 -9.5,7 -10.6,24.7 -10.6,24.7 z"
         id="path1138"
         inkscape:connector-curvature="0"
         style="fill:#354093" />
    </g>
    <line
       x1="-84.757378"
       y1="31.27018"
       x2="-81.979256"
       y2="31.27018"
       id="line1142"
       style="fill:none;stroke-width:0.26458332" />
    <g
       transform="matrix(0.26458333,0,0,0.26458333,-171.54071,-77.473568)"
       id="g1148">
      <g
         id="g1146">
        <path
           d="m 329.4,398 c 3.7,1.2 7.3,2.3 11,3.5 2.5,0.8 3.5,-3.1 1.1,-3.9 -3.7,-1.2 -7.3,-2.3 -11,-3.5 -2.5,-0.8 -3.5,3.1 -1.1,3.9 z"
           id="path1144"
           inkscape:connector-curvature="0"
           style="fill:#354093" />
      </g>
    </g>
    <g
       transform="matrix(0.26458333,0,0,0.26458333,-171.54071,-77.473568)"
       id="g1154">
      <g
         id="g1152">
        <path
           d="m 327.4,409.5 c 3.3,0.5 6.7,1 10,1.5 2.5,0.4 3.6,-3.5 1.1,-3.9 -3.3,-0.5 -6.7,-1 -10,-1.5 -2.5,-0.4 -3.6,3.5 -1.1,3.9 z"
           id="path1150"
           inkscape:connector-curvature="0"
           style="fill:#354093" />
      </g>
    </g>
    <path
       d="m -111.69196,68.920389 -1.0848,-0.21167 1.13771,-1.00541 c 0.89959,-0.79375 0.97896,-2.19604 0.15875,-3.09563 -0.79375,-0.89958 -2.19604,-0.97896 -3.09562,-0.15875 l -2.2225,1.98438 c -1.45521,-0.29104 -3.22792,-0.21167 -5.05354,0.3175 -3.96875,1.11125 -6.6675,3.83646 -6.0325,6.11187 0.635,2.27542 4.36562,3.175 8.33437,2.06375 1.71979,-0.47625 3.175,-1.27 4.25979,-2.16958 l 2.83104,0.52917 c 1.19063,0.21166 2.32834,-0.58209 2.56646,-1.77271 v 0 c 0.18521,-1.21709 -0.60854,-2.35479 -1.79916,-2.59292 z"
       id="path1156"
       inkscape:connector-curvature="0"
       style="fill:#ecbb3b;stroke-width:0.26458332" />
    <path
       d="m -147.9928,72.968519 0.82021,-0.7673 -1.50812,-0.23812 c -1.19063,-0.18521 -2.01084,-1.32292 -1.82563,-2.51354 0.18521,-1.19063 1.32292,-2.01084 2.51354,-1.82563 l 2.96334,0.47625 c 1.05833,-1.03187 2.59291,-1.93145 4.41854,-2.48708 3.94229,-1.21708 7.69937,-0.39687 8.38729,1.85208 0.68792,2.2225 -1.95792,5.02709 -5.90021,6.24417 -1.69333,0.52917 -3.36021,0.66146 -4.7625,0.47625 l -2.09021,1.98438 c -0.87312,0.8202 -2.27541,0.79375 -3.09562,-0.10584 v 0 c -0.84667,-0.87312 -0.79375,-2.27541 0.0794,-3.09562 z"
       id="path1158"
       inkscape:connector-curvature="0"
       style="fill:#ecbb3b;stroke-width:0.26458332" />
    <path
       d="m -119.55009,61.168099 -1.08479,0.26458 0.635,-1.37583 c 0.50271,-1.11125 0,-2.40771 -1.08479,-2.91042 -1.11125,-0.50271 -2.40771,0 -2.91042,1.08479 l -1.24354,2.72521 c -1.42875,0.3175 -3.04271,1.11125 -4.49792,2.32834 -3.175,2.61937 -4.55083,6.2177 -3.06916,8.01687 1.48166,1.79917 5.2652,1.13771 8.46666,-1.48167 1.37584,-1.1377 2.40771,-2.43416 3.01625,-3.70416 l 2.80459,-0.66146 c 1.16416,-0.29104 1.905,-1.45521 1.64041,-2.64583 v 0 c -0.29104,-1.19063 -1.48166,-1.905 -2.67229,-1.64042 z"
       id="path1160"
       inkscape:connector-curvature="0"
       style="fill:#ecbb3b;stroke-width:0.26458332" />
    <path
       d="m -140.0553,52.648516 -0.21166,1.084791 -1.00542,-1.137708 c -0.79375,-0.899583 -2.19604,-0.978958 -3.09563,-0.15875 -0.89958,0.79375 -0.97895,2.19604 -0.15875,3.09562 l 1.98438,2.2225 c -0.29104,1.45521 -0.21167,3.22792 0.3175,5.05355 1.11125,3.96875 3.83646,6.6675 6.11187,6.0325 2.27542,-0.635 3.175,-4.36563 2.06375,-8.33438 -0.47625,-1.71979 -1.27,-3.175 -2.16958,-4.25979 l 0.52917,-2.831042 c 0.21166,-1.190625 -0.58209,-2.328333 -1.77271,-2.566458 v 0 c -1.21708,-0.185208 -2.38125,0.608542 -2.59292,1.799167 z"
       id="path1162"
       inkscape:connector-curvature="0"
       style="fill:#ecbb3b;stroke-width:0.26458332" />
    <path
       d="m -136.40405,69.423099 -0.60854,-0.92604 1.50813,0.13229 c 1.21708,0.10583 2.27541,-0.79375 2.38125,-1.98438 0.10583,-1.21708 -0.79375,-2.27541 -1.98438,-2.38125 l -2.98979,-0.26458 c -0.76729,-1.24354 -2.06375,-2.51354 -3.67771,-3.4925 -3.51896,-2.14312 -7.35542,-2.27542 -8.5725,-0.26458 -1.21708,1.98437 0.66146,5.34458 4.18042,7.51416 1.50812,0.92605 3.09562,1.48167 4.49791,1.64042 l 1.56105,2.43417 c 0.66145,1.03187 2.01083,1.32291 3.0427,0.66146 v 0 c 1.00542,-0.68792 1.32292,-2.06375 0.66146,-3.06917 z"
       id="path1164"
       inkscape:connector-curvature="0"
       style="fill:#ecbb3b;stroke-width:0.26458332" />
    <path
       d="m -133.01738,66.327469 0.0265,-1.11125 -1.21708,0.89959 c -0.97896,0.71437 -2.3548,0.50271 -3.06917,-0.47625 -0.71438,-0.97896 -0.50271,-2.35479 0.47625,-3.06917 l 2.43417,-1.74625 c 0.0265,-1.48167 0.47625,-3.20146 1.37583,-4.89479 1.93146,-3.65125 5.15937,-5.715 7.22312,-4.630208 2.06375,1.084791 2.16959,4.947708 0.26459,8.572498 -0.82021,1.56104 -1.905,2.8575 -3.01625,3.70417 l -0.0794,2.88396 c -0.0265,1.21708 -1.05834,2.16958 -2.27542,2.14312 v 0 c -1.21708,-0.0265 -2.16958,-1.05833 -2.14312,-2.27542 z"
       id="path1166"
       inkscape:connector-curvature="0"
       style="fill:#ecbb3b;stroke-width:0.26458332" />
    <path
       d="m -79.042381,14.363307 0.02646,-1.11125 -1.217083,0.899584 c -0.97896,0.714375 -2.354794,0.502708 -3.069169,-0.47625 -0.714375,-0.978959 -0.502708,-2.354792 0.47625,-3.069167 l 2.434167,-1.7462505 c 0.02646,-1.481667 0.47625,-3.201458 1.375833,-4.894792 1.931459,-3.65124997 5.159375,-5.715 7.223125,-4.63020797 2.06375,1.084792 2.169584,4.94770797 0.264584,8.57249997 -0.820209,1.561042 -1.905,2.8575005 -3.01625,3.7041675 l -0.07937,2.883958 c -0.02646,1.217083 -1.058334,2.169583 -2.275417,2.143125 v 0 c -1.217088,-0.05292 -2.169588,-1.084792 -2.14313,-2.275417 z"
       id="path1168"
       inkscape:connector-curvature="0"
       style="fill:#ecbb3b;stroke-width:0.26458332" />
    <polygon
       transform="matrix(0.26458333,0,0,0.26458333,-171.54071,-77.473568)"
       points="262.9,640 48.4,640 76.9,559.3 231.4,559.3 "
       id="polygon1170"
       style="fill:#e8654d" />
    <path
       d="m -37.793841,0.60497353 0.29104,1.40229197 c 0.13229,0.661458 0.79375,1.11125 1.48167,0.978958 h 0.0529 c 0.66145,-0.132292 1.11125,-0.79375 0.97895,-1.481667 l -0.29104,-1.40229097 z"
       id="path1172"
       inkscape:connector-curvature="0"
       style="fill:#e8a495;stroke-width:0.26458332" />
    <g
       transform="matrix(0.26458333,0,0,0.26458333,-171.54071,-77.473568)"
       id="g1178">
      <g
         id="g1176">
        <path
           d="m 512.1,290.3 c -0.6,3.6 -5,4.5 -5.6,0.6 -0.4,-2.3 -0.2,-4.8 -0.3,-7.2 -0.1,-2.6 -4,-2.6 -4,0 0,2.4 0.4,5.6 -0.6,7.9 -1.1,2.5 -4,3.9 -5.3,1 -0.4,-0.8 -0.7,-2.5 -0.7,-2.8 -0.3,-2.5 -4.3,-2.6 -4,0 0.6,4.7 3.2,10.5 9,8.2 5.9,-2.4 5.6,-8.9 5.6,-14.2 -1.3,0 -2.7,0 -4,0 0.1,3.5 -0.5,8.4 1.7,11.5 3.6,5.1 11.2,1.5 12.1,-3.9 0.3,-2.6 -3.5,-3.7 -3.9,-1.1 z"
           id="path1174"
           inkscape:connector-curvature="0"
           style="fill:#354093" />
      </g>
    </g>
    <path
       d="m -39.910511,-5.3746095 h 4.07459 c 0.18521,0 0.26458,0.211666 0.15875,0.343958 l -2.19604,2.645833 c -0.0794,0.105834 -0.23813,0.105834 -0.3175,0 l -1.87855,-2.645833 c -0.10583,-0.132292 -0.0265,-0.343958 0.15875,-0.343958 z"
       id="path1180"
       inkscape:connector-curvature="0"
       style="fill:#e8654d;stroke-width:0.26458332" />
  </g>
</svg>
