<?xml version="1.0" encoding="UTF-8" standalone="no"?>
<!-- Generator: Adobe Illustrator 19.2.1, SVG Export Plug-In . SVG Version: 6.00 Build 0)  -->

<svg
   xmlns:dc="http://purl.org/dc/elements/1.1/"
   xmlns:cc="http://creativecommons.org/ns#"
   xmlns:rdf="http://www.w3.org/1999/02/22-rdf-syntax-ns#"
   xmlns:svg="http://www.w3.org/2000/svg"
   xmlns="http://www.w3.org/2000/svg"
   xmlns:xlink="http://www.w3.org/1999/xlink"
   xmlns:sodipodi="http://sodipodi.sourceforge.net/DTD/sodipodi-0.dtd"
   xmlns:inkscape="http://www.inkscape.org/namespaces/inkscape"
   version="1.1"
   id="Capa_1"
   x="0px"
   y="0px"
   viewBox="0 0 207.39999 198.60001"
   xml:space="preserve"
   sodipodi:docname="logo.svg"
   width="207.39999"
   height="198.60001"
   inkscape:version="0.92.1 r15371"><metadata
     id="metadata94"><rdf:RDF><cc:Work
         rdf:about=""><dc:format>image/svg+xml</dc:format><dc:type
           rdf:resource="http://purl.org/dc/dcmitype/StillImage" /><dc:title></dc:title></cc:Work></rdf:RDF></metadata><defs
     id="defs92" /><sodipodi:namedview
     pagecolor="#ffffff"
     bordercolor="#666666"
     borderopacity="1"
     objecttolerance="10"
     gridtolerance="10"
     guidetolerance="10"
     inkscape:pageopacity="0"
     inkscape:pageshadow="2"
     inkscape:window-width="694"
     inkscape:window-height="480"
     id="namedview90"
     showgrid="false"
     fit-margin-top="0"
     fit-margin-left="0"
     fit-margin-right="0"
     fit-margin-bottom="0"
     inkscape:zoom="0.39315832"
     inkscape:cx="-277.08867"
     inkscape:cy="82.950006"
     inkscape:window-x="-8"
     inkscape:window-y="0"
     inkscape:window-maximized="0"
     inkscape:current-layer="Capa_1" /><style
     type="text/css"
     id="style2">
	.st0{fill:#EDBC3B;}
	.st1{fill:#F7F2BF;}
	.st2{fill:#69C2BD;}
	.st3{fill:#252A5C;}
	.st4{fill:#E8654D;}
	.st5{fill:none;}
	.st6{display:none;fill:#252A5C;}
	.st7{font-family:'ZillaSlab-SemiBold';}
	.st8{font-size:48.6613px;}
	.st9{display:none;}
</style><g
     id="g78"
     transform="translate(-321.6,-182)"><path
       class="st0"
       d="m 519.9,286.1 c 0,22.5 -7.8,43.1 -21,59.4 -6.7,8.3 -14.8,15.5 -23.9,21.1 -3.8,2.4 -7.8,4.5 -12,6.3 -0.3,0.1 -0.7,0.3 -1.1,0.4 -4.3,1.8 -8.8,3.3 -13.4,4.5 -4.7,1.2 -9.5,2 -14.4,2.4 -2.8,0.3 -5.7,0.4 -8.6,0.4 0,0 0,0 -0.1,0 h -0.1 c -7.5,0 -14.8,-0.9 -21.7,-2.6 -5.1,-1.2 -10,-2.8 -14.7,-4.8 -0.5,-0.2 -0.9,-0.4 -1.4,-0.6 -4.1,-1.8 -8,-3.8 -11.7,-6.2 C 348.9,349.7 331,320 331,286.1 c 0,-52.2 42.3,-94.4 94.4,-94.4 52.2,-0.1 94.5,42.2 94.5,94.4 z"
       id="path4"
       inkscape:connector-curvature="0"
       style="fill:#edbc3b" /><polygon
       class="st1"
       points="365.5,286.1 385,300.4 409.3,258.5 385,250.5 365.5,258.5 "
       id="polygon6"
       style="fill:#f7f2bf" /><polygon
       class="st1"
       points="484.2,275.4 477.9,258.5 441.4,250.5 468.6,300.4 "
       id="polygon8"
       style="fill:#f7f2bf" /><g
       id="g12"><path
         class="st2"
         d="m 432.6,242.7 c 0,0 -0.1,0 -0.3,-0.1 -0.2,-0.1 -0.5,-0.2 -0.8,-0.4 -0.6,-0.4 -1.5,-0.9 -2.3,-1.7 -0.5,-0.4 -0.9,-0.9 -1.4,-1.3 -0.4,-0.5 -0.9,-1.1 -1.3,-1.7 -0.2,-0.3 -0.4,-0.6 -0.6,-0.9 -0.2,-0.3 -0.3,-0.7 -0.5,-1 -0.4,-0.7 -0.6,-1.4 -0.9,-2.1 -0.2,-0.7 -0.4,-1.5 -0.5,-2.2 -0.1,-0.7 -0.2,-1.5 -0.3,-2.2 0,-0.7 0,-1.4 0,-2 0,-0.6 0.1,-1.2 0.2,-1.8 0,-0.6 0.1,-1.1 0.2,-1.5 0.1,-0.4 0.2,-0.8 0.2,-1.1 0.1,-0.6 0.2,-1 0.2,-1 0,0 0,0.4 -0.1,1 0,0.3 -0.1,0.7 -0.1,1.2 -0.1,0.4 -0.1,0.9 0,1.5 0,0.5 0,1.1 0.1,1.8 0.1,0.6 0.2,1.3 0.3,1.9 0.1,0.7 0.3,1.3 0.5,2 0.2,0.7 0.5,1.3 0.8,2 0.4,0.6 0.6,1.3 1,1.8 0.2,0.3 0.4,0.6 0.6,0.8 0.2,0.3 0.4,0.5 0.6,0.7 0.4,0.5 0.9,0.9 1.3,1.3 0.5,0.4 0.9,0.7 1.3,1 0.8,0.6 1.6,0.9 2.1,1.2 0.3,0.1 0.5,0.2 0.6,0.2 0.1,0 0.2,0.1 0.2,0.1 z"
         id="path10"
         inkscape:connector-curvature="0"
         style="fill:#69c2bd" /></g><circle
       class="st3"
       cx="399.60001"
       cy="277"
       r="18.5"
       id="circle14"
       style="fill:#252a5c" /><circle
       class="st3"
       cx="450.10001"
       cy="277"
       r="18.5"
       id="circle16"
       style="fill:#252a5c" /><path
       class="st4"
       d="m 455.4,330.2 c -3,-0.3 -4.9,-0.3 -5.1,-0.3 v 0 c 0,0 -39.7,10.6 -32.6,31.4 1.1,3.4 3.6,7.1 7.6,11 0,0 0.1,0.1 0.1,0.1 1,0.9 2.1,1.9 3.3,2.9 1.8,1.5 3.6,3.1 5.4,4.8 4.9,-0.4 9.7,-1.3 14.4,-2.4 4.6,-1.1 9.1,-2.6 13.4,-4.5 0.4,-0.1 0.7,-0.3 1.1,-0.4 4.2,-1.8 8.2,-3.9 12,-6.3 9.1,-5.6 17.2,-12.7 23.9,-21.1 -18.1,-11.3 -35.2,-14.4 -43.5,-15.2 z"
       id="path18"
       inkscape:connector-curvature="0"
       style="fill:#e8654d" /><path
       class="st2"
       d="m 462.9,372.8 c -4,-9.7 -7.4,-15.3 -7.8,-16 2.5,5.5 4.8,11 6.8,16.4 -4.3,1.8 -8.8,3.3 -13.4,4.5 -4.7,1.2 -9.5,2 -14.4,2.4 -2.8,0.3 -5.7,0.4 -8.6,0.4 0,0 0,0 -0.1,0 v -14.9 c 0,0 -0.1,-0.1 -0.1,-0.1 v 15 c -7.5,0 -14.8,-0.9 -21.7,-2.6 -5.1,-1.2 -10,-2.8 -14.7,-4.8 2,-5.4 4.2,-10.9 6.8,-16.4 -0.5,0.7 -4,6 -8.1,15.8 -4.1,-1.8 -8,-3.8 -11.7,-6.2 9.7,-22.4 19.8,-36.5 19.8,-36.5 h 29.8 v 5.8 l 0.1,-0.1 v -5.7 h 29.8 c 0,0 0.1,0.1 0.2,0.3 1.5,2.2 10.7,15.9 19.5,36.3 -4,2.5 -8,4.6 -12.2,6.4 z"
       id="path20"
       inkscape:connector-curvature="0"
       style="fill:#69c2bd" /><path
       class="st1"
       d="m 448.4,377.7 c -4.7,1.2 -9.5,2 -14.4,2.4 -2.8,0.3 -5.7,0.4 -8.6,0.4 0,0 0,0 -0.1,0 h -0.1 c -7.5,0 -14.8,-0.9 -21.7,-2.6 3.4,-7.8 8.4,-13.7 14.1,-16.7 2.6,-1.4 5.4,-2.1 8.4,-2.1 9.2,0.1 17.4,7.4 22.4,18.6 z"
       id="path22"
       inkscape:connector-curvature="0"
       style="fill:#f7f2bf" /><path
       class="st4"
       d="m 389.3,329.8 c 0,0 -3.8,7.6 -4.3,13 -0.5,5.4 39.6,2 39.6,2 0,0 43.2,3.3 44,-2.4 0.9,-5.7 -18.5,-18.6 -18.5,-18.6 z"
       id="path24"
       inkscape:connector-curvature="0"
       style="fill:#e8654d" /><path
       class="st4"
       d="m 425.4,342.7 c 0,0 -7.6,3.3 -8.7,9.6 -1.1,6.3 1,10.2 0.6,12 -0.1,0 10.6,-10.3 8.1,-21.6 z"
       id="path26"
       inkscape:connector-curvature="0"
       style="fill:#e8654d" /><path
       class="st4"
       d="m 425.4,342.7 c 0,0 5.7,2.5 6.5,7.2 0.8,4.7 -0.8,7.7 -0.4,9 0,0 -8,-7.7 -6.1,-16.2 z"
       id="path28"
       inkscape:connector-curvature="0"
       style="fill:#e8654d" /><g
       id="g38"><path
         class="st5"
         d="m 477.6,268.7 0.3,-1.2 -6.6,-1.8 c -15.5,-4.3 -31.6,4.8 -35.9,20.3 l -0.3,1.2 6.6,1.8 c 15.5,4.3 31.6,-4.8 35.9,-20.3 z"
         id="path30"
         inkscape:connector-curvature="0"
         style="fill:none" /><path
         class="st5"
         d="m 378.5,265.7 -6.6,1.8 0.3,1.2 c 4.3,15.5 20.4,24.6 35.9,20.3 l 6.6,-1.8 -0.3,-1.2 C 410.1,270.4 394,261.3 378.5,265.7 Z"
         id="path32"
         inkscape:connector-curvature="0"
         style="fill:none" /><path
         class="st2"
         d="m 450.3,337.4 c 28.9,-7.8 47.9,-26.5 47.9,-26.5 l -6.2,-75.5 -7.6,-6.5 6.4,-8.4 -1.6,-19.8 -26.3,37 h -37.4 -37.4 l -26.3,-37 -9,110.3 c 0,0 19,18.6 47.8,26.5 20.9,-42.8 25.1,-86.9 25.1,-86.9 0,0 1.5,43.6 24.6,86.8 z m -14.9,-51.5 c 4.3,-15.5 20.4,-24.6 35.9,-20.3 l 6.6,1.8 -0.3,1.2 c -4.3,15.5 -20.4,24.6 -35.9,20.3 l -6.6,-1.8 z m -27.3,3.1 c -15.5,4.3 -31.6,-4.8 -35.9,-20.3 l -0.3,-1.2 6.6,-1.8 c 15.5,-4.3 31.6,4.8 35.9,20.3 l 0.3,1.2 z"
         id="path34"
         inkscape:connector-curvature="0"
         style="fill:#69c2bd" /><path
         class="st1"
         d="m 450.3,337.4 c -23.1,-43.1 -24.7,-86.9 -24.7,-86.9 0,0 -4.1,44.1 -25.1,86.9 7.7,2.1 16,3.4 24.9,3.4 8.9,-0.1 17.2,-1.4 24.9,-3.4 z"
         id="path36"
         inkscape:connector-curvature="0"
         style="fill:#f7f2bf" /></g><g
       id="g42"><polygon
         class="st3"
         points="425.3,303.2 430.4,299.2 425.3,299.2 420.2,299.2 "
         id="polygon40"
         style="fill:#252a5c" /></g><g
       id="g46"><polygon
         class="st3"
         points="425,302 425.5,302 425.3,309.3 "
         id="polygon44"
         style="fill:#252a5c" /></g><g
       id="g50"><path
         class="st3"
         d="m 415.9,304.8 c 0,0 1,0.9 2.8,1.8 0.4,0.2 0.9,0.5 1.4,0.7 0.5,0.2 1.1,0.4 1.7,0.6 0.6,0.2 1.2,0.3 1.8,0.5 0.6,0.1 1.3,0.2 1.9,0.2 0.3,0 0.7,0 1,0 0.3,0 0.6,-0.1 1,-0.1 0.6,0 1.2,-0.3 1.8,-0.4 0.3,-0.1 0.6,-0.2 0.8,-0.3 0.3,-0.1 0.5,-0.2 0.8,-0.3 0.5,-0.2 1,-0.5 1.4,-0.8 0.4,-0.3 0.8,-0.5 1.1,-0.7 0.3,-0.2 0.6,-0.5 0.8,-0.6 0.5,-0.4 0.7,-0.6 0.7,-0.6 0,0 -0.2,0.2 -0.7,0.6 -0.2,0.2 -0.5,0.4 -0.8,0.7 -0.3,0.3 -0.7,0.5 -1.1,0.8 -0.4,0.3 -0.8,0.6 -1.4,0.8 -0.5,0.2 -1.1,0.6 -1.7,0.7 -0.6,0.1 -1.2,0.4 -1.9,0.5 -0.3,0 -0.7,0.1 -1,0.1 -0.3,0 -0.7,0 -1,0 -0.7,0 -1.3,-0.1 -2,-0.2 -0.6,-0.1 -1.3,-0.3 -1.9,-0.5 -1.2,-0.4 -2.2,-1 -3.1,-1.5 -1.5,-1 -2.4,-2 -2.4,-2 z"
         id="path48"
         inkscape:connector-curvature="0"
         style="fill:#252a5c" /></g><path
       class="st2"
       d="m 419.4,315.2 12.1,-1 c 0,0 -0.6,12.2 -4.8,11.9 -4.3,-0.3 -7.3,-10.9 -7.3,-10.9 z"
       id="path52"
       inkscape:connector-curvature="0"
       style="fill:#69c2bd" /><g
       id="g56"><path
         class="st1"
         d="m 441.3,301.2 c 0,0 5.5,-0.8 13.7,-1.9 8.2,-1.1 19.2,-2.6 30.1,-4 11,-1.4 21.9,-2.8 30.2,-3.8 8.2,-1 13.7,-1.6 13.7,-1.6 0,0 -5.5,0.8 -13.7,1.9 -8.2,1.1 -19.2,2.6 -30.1,4 -11,1.4 -21.9,2.8 -30.2,3.8 -8.3,0.9 -13.7,1.6 -13.7,1.6 z"
         id="path54"
         inkscape:connector-curvature="0"
         style="fill:#f7f2bf" /></g><g
       id="g60"><path
         class="st1"
         d="m 441.3,304.1 c 0,0 5.4,0.9 13.6,2.4 8.2,1.5 19,3.4 29.9,5.4 10.9,2 21.7,4.1 29.9,5.6 8.1,1.6 13.6,2.6 13.6,2.6 0,0 -5.4,-0.9 -13.6,-2.4 -8.2,-1.5 -19,-3.4 -29.9,-5.4 -10.9,-2 -21.7,-4.1 -29.9,-5.6 -8.2,-1.5 -13.6,-2.6 -13.6,-2.6 z"
         id="path58"
         inkscape:connector-curvature="0"
         style="fill:#f7f2bf" /></g><g
       id="g64"><path
         class="st1"
         d="m 409.3,300.4 c 0,0 -5.5,-0.7 -13.7,-1.6 -8.2,-1 -19.2,-2.4 -30.2,-3.8 -11,-1.5 -21.9,-2.9 -30.1,-4 -8.2,-1.1 -13.7,-1.9 -13.7,-1.9 0,0 5.5,0.7 13.7,1.6 8.2,1 19.2,2.4 30.2,3.8 11,1.5 21.9,2.9 30.1,4 8.2,1.1 13.7,1.9 13.7,1.9 z"
         id="path62"
         inkscape:connector-curvature="0"
         style="fill:#f7f2bf" /></g><g
       id="g68"><path
         class="st1"
         d="m 409.3,303.3 c 0,0 -5.4,1.1 -13.6,2.6 -8.1,1.5 -19,3.6 -29.9,5.6 -10.9,2 -21.8,3.9 -29.9,5.4 -8.2,1.4 -13.6,2.4 -13.6,2.4 0,0 5.4,-1.1 13.6,-2.6 8.1,-1.5 19,-3.6 29.9,-5.6 10.9,-2 21.8,-3.9 29.9,-5.4 8.2,-1.4 13.6,-2.4 13.6,-2.4 z"
         id="path66"
         inkscape:connector-curvature="0"
         style="fill:#f7f2bf" /></g><polygon
       class="st3"
       points="366.4,237.6 377.9,237.6 366.4,219.3 "
       id="polygon70"
       style="fill:#252a5c" /><polygon
       class="st3"
       points="484.2,237.6 472.7,237.6 484.2,219.3 "
       id="polygon72"
       style="fill:#252a5c" /><g
       id="g76"><path
         class="st2"
         d="m 423.6,242.6 c 0,0 -0.1,-0.1 -0.2,-0.2 -0.2,-0.2 -0.4,-0.4 -0.7,-0.7 -0.3,-0.3 -0.6,-0.7 -0.9,-1.1 -0.3,-0.5 -0.7,-1 -1.1,-1.5 -0.4,-0.6 -0.8,-1.2 -1.2,-1.9 -0.4,-0.7 -0.8,-1.4 -1.2,-2.2 -0.4,-0.8 -0.8,-1.6 -1.1,-2.4 -0.3,-0.8 -0.7,-1.7 -0.9,-2.6 l -0.4,-1.3 c -0.1,-0.4 -0.2,-0.9 -0.3,-1.3 -0.2,-0.9 -0.3,-1.8 -0.4,-2.6 -0.1,-0.8 -0.1,-1.7 -0.1,-2.5 0,-0.4 0,-0.8 0,-1.1 0,-0.4 0.1,-0.7 0.1,-1.1 0.1,-0.7 0.1,-1.3 0.2,-1.8 0.1,-0.5 0.2,-1 0.3,-1.4 0.2,-0.8 0.2,-1.2 0.2,-1.2 0,0 0,0.4 -0.1,1.2 0,0.4 -0.1,0.9 -0.1,1.4 0,0.5 0,1.2 0,1.8 0,0.3 0,0.7 0,1 0,0.4 0.1,0.7 0.1,1.1 0.1,0.8 0.2,1.6 0.4,2.4 0.2,0.8 0.3,1.6 0.6,2.5 0.1,0.4 0.3,0.8 0.4,1.2 l 0.5,1.2 c 0.3,0.8 0.7,1.6 1.1,2.3 0.4,0.8 0.9,1.5 1.3,2.2 0.5,0.7 0.9,1.3 1.4,1.9 0.4,0.6 0.9,1.1 1.3,1.6 0.4,0.5 0.8,0.9 1.2,1.3 0.4,0.4 0.7,0.7 1,0.9 0.3,0.3 0.5,0.4 0.6,0.6 0.2,0.1 0.2,0.2 0.2,0.2 z"
         id="path74"
         inkscape:connector-curvature="0"
         style="fill:#69c2bd" /></g></g><text
     transform="scale(0.80168572,1.2473716)"
     class="st6 st7 st8"
     id="text80"
     style="font-size:39.01107025px;font-family:ZillaSlab-SemiBold;display:none;fill:#252a5c;stroke-width:0.80168575"
     x="-38.149487"
     y="168.93779">COLONIA VIVEROS</text>
<path
     id="SVGID_x5F_1_x5F_"
     class="st5"
     d="m 21.2,49.8 c 0,0 24.1,-49.8 83.3,-49.8 59.2,0 83.1,49.6 83.1,49.6"
     inkscape:connector-curvature="0"
     style="fill:none" /><text
     class="st9"
     id="text87"
     style="display:none"
     transform="translate(-321.6,-182)"><textPath
       xlink:href="#SVGID_x5F_1_x5F_"
       startOffset="31.079501%"
       style="display:inline"
       id="textPath85"><tspan
   class="st3"
   style="font-size:15.75419998px;font-family:Raleway-Regular;fill:#252a5c"
   id="tspan83">Conexión Felina</tspan></textPath></text>
</svg>